# xmcd
#
# Track frame offsets:
#	150
#	10919
#	21797
#	31922
#	43015
#	51815
#	62326
#	71024
#	81997
#	89658
#	99560
#	112316
#	125377
#	134275
#	147901
#	160322
#	173106
#	185024
#	195146
#	205991
#	218107
#	229280
#	241295
#	250924
#
# Disc length: 3500 seconds
#
# Revision: 2
# Processed by: cddbd v1.5.1PL2 Copyright (c) Steve Scherf et al.
# Submitted via: MusicWizard 7.2.0
#
DISCID=580daa18
DTITLE=Lee, Brenda - Grandma What Great Songs You Sang! - Miss Dynamite
DYEAR=2004
DGENRE=Pop
TTITLE0=Some Of These Days
TTITLE1=Pennies From Heaven
TTITLE2=Baby Face
TTITLE3=A Good Man Is Hard To Find
TTITLE4=Just Because
TTITLE5=Toot, Toot, Tootsie
TTITLE6=Ballin' The Jack
TTITLE7=Rock-A-Bye Your Baby With A Dixie Melody
TTITLE8=Pretty Baby
TTITLE9=Side By Side
TTITLE10=Back In Your Own Backyard
TTITLE11=St. Louis Blues
TTITLE12=Dynamite
TTITLE13=Weep No More My Baby
TTITLE14=Jambalaya (On The Bayou)
TTITLE15=(If I'm Dreaming) Just Let Me Dream
TTITLE16=Be My Love Agan
TTITLE17=My Baby Likes Western Guys
TTITLE18=Sweet Nothin's
TTITLE19=I'm Sorry
TTITLE20=That's All You Gotta Do
TTITLE21=Heading Home
TTITLE22=Wee Wee Willies
TTITLE23=Let's Jump The Broomstick
EXTD=
EXTT0=
EXTT1=
EXTT2=
EXTT3=
EXTT4=
EXTT5=
EXTT6=
EXTT7=
EXTT8=
EXTT9=
EXTT10=
EXTT11=
EXTT12=
EXTT13=
EXTT14=
EXTT15=
EXTT16=
EXTT17=
EXTT18=
EXTT19=
EXTT20=
EXTT21=
EXTT22=
EXTT23=
PLAYORDER=
